<!DOCTYPE svg PUBLIC "-//W3C//DTD SVG 1.1//EN" "http://www.w3.org/Graphics/SVG/1.1/DTD/svg11.dtd">
<!-- Uploaded to: SVG Repo, www.svgrepo.com, Transformed by: SVG Repo Mixer Tools -->
<svg width="247px" height="247px" viewBox="0 0 24.00 24.00" xmlns="http://www.w3.org/2000/svg" fill="#1AA090" stroke="#1AA090" stroke-width="0.00024000000000000003">
<g id="SVGRepo_bgCarrier" stroke-width="0"/>
<g id="SVGRepo_tracerCarrier" stroke-linecap="round" stroke-linejoin="round" stroke="#CCCCCC" stroke-width="0.192"/>
<g id="SVGRepo_iconCarrier">
<path d="M2 2h10v19h11v1H1v-1h1zm1 19h8V3H3zM17.176 5L15.5 2.942 13.824 5H15v13h-1.176l1.676 2.058L17.176 18H16V5zM8 5h2v2H8zm-4 7h2v-2H4zm0-5h2V5H4zm0 10h2v-2H4zm4-5h2v-2H8zm0 5h2v-2H8z"/>
<path fill="none" d="M0 0h24v24H0z"/>
</g>
</svg>