<!DOCTYPE svg PUBLIC "-//W3C//DTD SVG 1.1//EN" "http://www.w3.org/Graphics/SVG/1.1/DTD/svg11.dtd">
<!-- Uploaded to: SVG Repo, www.svgrepo.com, Transformed by: SVG Repo Mixer Tools -->
<svg version="1.1" id="Layer_1" xmlns="http://www.w3.org/2000/svg" xmlns:xlink="http://www.w3.org/1999/xlink" viewBox="0 0 512 512" xml:space="preserve" width="800px" height="800px" fill="#000000">
<g id="SVGRepo_bgCarrier" stroke-width="0"/>
<g id="SVGRepo_tracerCarrier" stroke-linecap="round" stroke-linejoin="round"/>
<g id="SVGRepo_iconCarrier"> <path style="fill:#ffffff;" d="M256,0C114.615,0,0,114.615,0,256c0,109.511,68.763,202.962,165.467,239.531l346.23-252.084 C505.153,107.893,393.176,0,256,0z"/> <path style="fill:#ffffff;" d="M512,256c0-4.21-0.109-8.393-0.309-12.553l-88.734-88.734l-291.415-13.687L89.043,419.083 l76.43,76.43C193.621,506.158,224.126,512,256,512C397.385,512,512,397.384,512,256z"/> <polygon style="fill:#1AA090;" points="111.304,419.083 89.043,419.083 89.043,199.235 155.826,188.104 "/> <g> <polygon style="fill:#1AA090;" points="400.696,419.083 422.957,419.083 422.957,199.235 356.174,188.104 "/> <polygon style="fill:#1AA090;" points="422.957,154.713 244.87,165.843 256,44.522 "/> </g> <polygon style="fill:#1AA090;" points="256,44.522 256,165.843 89.043,154.713 "/> <polygon style="fill:#1AA090;" points="422.957,154.713 422.957,199.235 256,199.235 233.739,176.974 256,154.713 "/> <rect x="89.043" y="154.713" style="fill:#1AA090;" width="166.957" height="44.522"/> </g>
</svg>