<!DOCTYPE svg PUBLIC "-//W3C//DTD SVG 1.1//EN" "http://www.w3.org/Graphics/SVG/1.1/DTD/svg11.dtd">
<!-- Uploaded to: SVG Repo, www.svgrepo.com, Transformed by: SVG Repo Mixer Tools -->
<svg fill="#0d42ff" height="800px" width="800px" version="1.1" id="Layer_1" xmlns="http://www.w3.org/2000/svg" xmlns:xlink="http://www.w3.org/1999/xlink" viewBox="0 0 512 512" xml:space="preserve">
<g id="SVGRepo_bgCarrier" stroke-width="0"/>
<g id="SVGRepo_tracerCarrier" stroke-linecap="round" stroke-linejoin="round"/>
<g id="SVGRepo_iconCarrier"> <g> <g> <path d="M483.808,348.026c11.028,0,20.192-8.316,20.192-19.344v-192.74c4-1.656,8-6.056,8-11.26v-4 c0-6.616-5.576-12.656-12.192-12.656H488V72.182c0-11.028-8.972-20.156-20-20.156h-48V24.182c0-11.028-8.964-20.156-19.992-20.156 h-208C180.98,4.026,172,13.154,172,24.182v11.844h-11.972C149,36.026,140,45.154,140,56.182v51.844h-29.196l-19.6-45.028 c-9.388-20.84-24.62-30.972-46.564-30.972H3.808C1.6,32.026,0,34.47,0,36.682v20c0,2.212,1.6,3.344,3.808,3.344h40.248 c12.496,0,14.72,4.948,18.752,13.336l15.836,36.416c-3.972,1.96-6.644,6.176-6.644,10.904v4c0,6.616,5.192,11.344,11.808,11.344 H90.1l84.624,194.92c4.164,9.58,15.608,17.08,26.052,17.08h4.504l-27.812,64.944c-1.86-0.22-3.744-0.204-5.66-0.204 c-26.332,0-47.752,21.504-47.752,47.832s21.416,47.336,47.752,47.336c22.088,0,40.668-15.912,46.096-35.912H417.96 c5.428,20,24.008,35.952,46.096,35.952c26.332,0,47.752-21.196,47.752-47.524c0-26.328-21.416-48.088-47.752-48.088 c-20.804,0-38.496,15.66-45.028,31.66H216.836c-2.78-8-7.568-14.752-13.772-20.14l32.7-75.856H483.808z M440,170.606 c0-5.476,4.524-9.92,10-9.92s10,4.444,10,9.92v136.156c0,5.48-4.524,9.92-10,9.92s-10-4.44-10-9.92V170.606z M180,214.762 c0,5.48-4.524,9.92-10,9.92s-10-4.44-10-9.92v-44.156c0-5.476,4.524-9.92,10-9.92s10,4.444,10,9.92V214.762z M384,170.606 c0-5.476,4.524-9.92,10-9.92s10,4.444,10,9.92v136.156c0,5.48-4.524,9.92-10,9.92s-10-4.44-10-9.92V170.606z M328,170.606 c0-5.476,4.524-9.92,10-9.92s10,4.444,10,9.92v136.156c0,5.48-4.524,9.92-10,9.92s-10-4.44-10-9.92V170.606z M272,170.606 c0-5.476,4.524-9.92,10-9.92s10,4.444,10,9.92v136.156c0,5.48-4.524,9.92-10,9.92s-10-4.44-10-9.92V170.606z M226,316.682 c-5.476,0-10-4.44-10-9.92V170.606c0-5.476,4.524-9.92,10-9.92s10,4.444,10,9.92v136.156C236,312.242,231.476,316.682,226,316.682 z"/> </g> </g> </g>
</svg>